<svg id="Layer_1" data-name="Layer 1" xmlns="http://www.w3.org/2000/svg" viewBox="0 0 826.82 344.12"><defs><style>.cls-1{fill:#f8fafc;}</style></defs><title>go-mo-group-full-logo-white</title><path class="cls-1" d="M392.8,173.93a75.54,75.54,0,0,1-.27,9.12,50.66,50.66,0,0,1-1.51,8.52,37.07,37.07,0,0,1-3.24,8.05,37.46,37.46,0,0,1-5.42,7.47A47.76,47.76,0,0,1,365.2,219a53.49,53.49,0,0,1-20.62,4.16,48.82,48.82,0,0,1-19.61-4A52.25,52.25,0,0,1,297.56,192a47.68,47.68,0,0,1-4.09-19.54,49.67,49.67,0,0,1,4.09-20.08A52,52,0,0,1,325.24,125a50.66,50.66,0,0,1,20.14-4,47.85,47.85,0,0,1,24.43,6.27,61.69,61.69,0,0,1,18.77,17l-5.16,4.1a51.16,51.16,0,0,0-16.51-15.65A42.46,42.46,0,0,0,345,126.92a41.41,41.41,0,0,0-17.29,3.69,48.09,48.09,0,0,0-14.41,9.91,47,47,0,0,0-9.83,14.4,41.71,41.71,0,0,0-3.63,17.17,43.17,43.17,0,0,0,3.56,17.43,46.08,46.08,0,0,0,9.69,14.33,47.37,47.37,0,0,0,14.35,9.78A42.83,42.83,0,0,0,345,217.26a42,42,0,0,0,15.58-3,52.27,52.27,0,0,0,13.75-8,33,33,0,0,0,9.18-11.88c1.8-4.23,1.94-5.85,2.7-11.81l-22.29-8.67Z"/><path class="cls-1" d="M474.79,221.88h-7.28L435,174.72H410.1v47.16h-6.34v-99.6h34.17a105.39,105.39,0,0,1,11.89.67,22.22,22.22,0,0,1,10.83,4.36,21.5,21.5,0,0,1,7.73,9.44,31.11,31.11,0,0,1,2.31,12,29.08,29.08,0,0,1-2.11,11.42,21.74,21.74,0,0,1-5.95,8.19,25.93,25.93,0,0,1-9,4.88,35,35,0,0,1-11.44,1.52Zm-34.87-53.09a61.26,61.26,0,0,0,9.11-.67,16.27,16.27,0,0,0,8.32-4,17.72,17.72,0,0,0,5.28-7.07,22.35,22.35,0,0,0,1.72-8.64,22.91,22.91,0,0,0-2.57-10.57,15.87,15.87,0,0,0-8-7.41,22.59,22.59,0,0,0-8.71-2q-4.77-.19-9.12-.19H410.1v40.55Z"/><path class="cls-1" d="M529.57,121a50.08,50.08,0,0,1,19.88,4,51.73,51.73,0,0,1,16.45,11,54.27,54.27,0,0,1,11.16,16.32,49.1,49.1,0,0,1,0,39.56,54.4,54.4,0,0,1-11.16,16.24,51.76,51.76,0,0,1-16.45,11,51.22,51.22,0,0,1-39.83,0,51.79,51.79,0,0,1-16.38-11,54.22,54.22,0,0,1-11.16-16.24,47.77,47.77,0,0,1-4.16-19.81,48.46,48.46,0,0,1,4.1-19.75A52.3,52.3,0,0,1,509.62,125,49.92,49.92,0,0,1,529.57,121Zm0,6A42.87,42.87,0,0,0,512,130.54a48.15,48.15,0,0,0-14.4,9.78,45.54,45.54,0,0,0-9.78,14.33,44.47,44.47,0,0,0,0,34.87,45.66,45.66,0,0,0,9.78,14.33,48,48,0,0,0,14.4,9.78,44.17,44.17,0,0,0,35.07,0,46.4,46.4,0,0,0,24.18-24.17,43.65,43.65,0,0,0,0-34.81,46.58,46.58,0,0,0-24.18-24.11A43,43,0,0,0,529.57,126.92Z"/><path class="cls-1" d="M657.77,122.28h6.34v62.09c0,2.56,0,5-.13,7.4a48.83,48.83,0,0,1-.73,6.93,27.8,27.8,0,0,1-5.88,12.88,31.22,31.22,0,0,1-12.28,8.71c-4.84,1.94-12,2.91-17,2.91s-12.12-1-17-2.91a31.33,31.33,0,0,1-12.29-8.71,29.16,29.16,0,0,1-3.89-6.34,28.82,28.82,0,0,1-2-6.54,50.34,50.34,0,0,1-.73-6.93c-.09-2.38-.13-4.84-.13-7.4V122.28h6.34v60.24c0,2.29,0,4.55.06,6.8a49.5,49.5,0,0,0,.6,6.61,39.55,39.55,0,0,0,1.52,6.2,18.31,18.31,0,0,0,3,5.49,19.92,19.92,0,0,0,4.5,4.16,32.23,32.23,0,0,0,5.61,3,29.94,29.94,0,0,0,6.14,1.84,57,57,0,0,0,16.49,0,29.75,29.75,0,0,0,6.14-1.84,33.07,33.07,0,0,0,5.62-3,20.08,20.08,0,0,0,4.49-4.16,18.09,18.09,0,0,0,3-5.49,39.55,39.55,0,0,0,1.52-6.2,47.9,47.9,0,0,0,.6-6.61c0-2.25.06-4.51.06-6.8Z"/><path class="cls-1" d="M681.47,223.35H675V122.29h37.71a69.12,69.12,0,0,1,11.59.94,20.91,20.91,0,0,1,10.26,5,23.45,23.45,0,0,1,6.9,9.31A30.1,30.1,0,0,1,743.7,149a30.78,30.78,0,0,1-2.08,11,20.73,20.73,0,0,1-6.36,9,23.11,23.11,0,0,1-10.59,5.22,59,59,0,0,1-11.93,1.21H681.47Zm31.54-54a43,43,0,0,0,9.39-1,18.78,18.78,0,0,0,8.3-4.49,19.67,19.67,0,0,0,6.58-15.15,23.17,23.17,0,0,0-1.89-9.12,16.91,16.91,0,0,0-5.75-7.23,17.15,17.15,0,0,0-8.45-3.48,76.58,76.58,0,0,0-9.25-.54H681.47v41Z"/><rect class="cls-1" x="270.06" y="88.18" width="4.31" height="167.96"/><polygon class="cls-1" points="156.51 176.26 123.06 235.24 89.61 176.26 86.52 176.26 86.52 254.44 95.35 254.44 95.39 205.95 121.66 250.31 124.43 250.31 150.59 204.85 150.53 254.44 159.6 254.44 159.6 176.26 156.51 176.26"/><path class="cls-1" d="M210.05,174.53a39.67,39.67,0,0,1,15.85,3.21,41.17,41.17,0,0,1,13,8.75,42.25,42.25,0,0,1,8.81,13A38.62,38.62,0,0,1,251,215.24a40,40,0,0,1-25,37.61,41.66,41.66,0,0,1-44.92-8.54,40.36,40.36,0,0,1-12-29.07,38.78,38.78,0,0,1,3.26-15.79,42.25,42.25,0,0,1,8.81-13,41.29,41.29,0,0,1,13-8.75A39.67,39.67,0,0,1,210.05,174.53Zm0,72.32a30,30,0,0,0,12-2.44,32.18,32.18,0,0,0,9.95-6.68,31.59,31.59,0,0,0,6.78-10,31.13,31.13,0,0,0,2.49-12.49A32.71,32.71,0,0,0,239,203.07a30.64,30.64,0,0,0-6.42-10,31.08,31.08,0,0,0-51.39,10,32.89,32.89,0,0,0-2.27,12.17,31.31,31.31,0,0,0,9.27,22.49,32.14,32.14,0,0,0,9.94,6.68A30,30,0,0,0,210.05,246.85Z"/><path class="cls-1" d="M160.41,128.82V132a41.36,41.36,0,0,1-2.72,15.14,36.53,36.53,0,0,1-7.7,12.14,35.51,35.51,0,0,1-11.83,8.12A38.06,38.06,0,0,1,123,170.29,37.22,37.22,0,0,1,107.47,167a40.32,40.32,0,0,1-12.68-9A43,43,0,0,1,86.26,145a39.61,39.61,0,0,1-3.14-15.61,40.74,40.74,0,0,1,3.19-16,42.14,42.14,0,0,1,8.75-13.19,40.82,40.82,0,0,1,13-8.9,39.79,39.79,0,0,1,16-3.24,41.58,41.58,0,0,1,17.75,4,39.73,39.73,0,0,1,14.4,11.32l-6.91,6.59a32.82,32.82,0,0,0-10.94-9.32A29.11,29.11,0,0,0,124.49,97a30.66,30.66,0,0,0-12.36,2.51,31.42,31.42,0,0,0-10,6.86,32.52,32.52,0,0,0-6.71,10.21A32,32,0,0,0,93,129a30.93,30.93,0,0,0,2.41,12,34.92,34.92,0,0,0,6.55,10.32,32.19,32.19,0,0,0,9.74,7.23,27.11,27.11,0,0,0,12,2.71,24.18,24.18,0,0,0,9.16-1.83,28.78,28.78,0,0,0,8.23-5,26.61,26.61,0,0,0,6-7.49,21,21,0,0,0,2.51-9.12l-17.51-9Z"/><path class="cls-1" d="M210,88.08a39.54,39.54,0,0,1,15.83,3.21,41.24,41.24,0,0,1,13,8.75A42.06,42.06,0,0,1,247.57,113a38.74,38.74,0,0,1,3.26,15.78,40.35,40.35,0,0,1-12,29,41.57,41.57,0,0,1-57.84,0,40.35,40.35,0,0,1-11.95-29A38.74,38.74,0,0,1,172.35,113a41.91,41.91,0,0,1,8.8-12.93,41.2,41.2,0,0,1,13-8.75A39.58,39.58,0,0,1,210,88.08Zm0,72.22a29.7,29.7,0,0,0,11.95-2.43,32.11,32.11,0,0,0,9.94-6.67,31.75,31.75,0,0,0,6.77-10,31,31,0,0,0,2.49-12.47,32.85,32.85,0,0,0-2.28-12.16,30.5,30.5,0,0,0-6.42-10,31.37,31.37,0,0,0-44.9,0,30.5,30.5,0,0,0-6.42,10,32.85,32.85,0,0,0-2.28,12.16,31,31,0,0,0,2.49,12.47,31.42,31.42,0,0,0,6.77,10,32.11,32.11,0,0,0,9.94,6.67A29.7,29.7,0,0,0,210,160.3Z"/></svg>